<mxfile host="Electron" modified="2024-04-17T13:49:36.026Z" agent="Mozilla/5.0 (Windows NT 10.0; Win64; x64) AppleWebKit/537.36 (KHTML, like Gecko) draw.io/22.0.3 Chrome/114.0.5735.289 Electron/25.8.4 Safari/537.36" etag="EHpcU3FeuhdyKruK0DVS" version="22.0.3" type="device">
  <diagram name="Page-1" id="e56a1550-8fbb-45ad-956c-1786394a9013">
    <mxGraphModel dx="845" dy="621" grid="1" gridSize="10" guides="1" tooltips="1" connect="1" arrows="1" fold="1" page="1" pageScale="1" pageWidth="1100" pageHeight="850" background="none" math="0" shadow="0">
      <root>
        <mxCell id="0" />
        <mxCell id="1" parent="0" />
        <mxCell id="cugVBvZW948sxhPF5yKL-2" value="User" style="swimlane;fontStyle=0;childLayout=stackLayout;horizontal=1;startSize=30;horizontalStack=0;resizeParent=1;resizeParentMax=0;resizeLast=0;collapsible=1;marginBottom=0;whiteSpace=wrap;html=1;" parent="1" vertex="1">
          <mxGeometry x="360" y="50" width="190" height="120" as="geometry" />
        </mxCell>
        <mxCell id="cugVBvZW948sxhPF5yKL-5" value="&lt;u&gt;id_user&lt;br&gt;&lt;/u&gt;nom&lt;br&gt;prenom&lt;br&gt;motDePasse&amp;nbsp;&lt;br&gt;email&lt;br&gt;dateDeNaissance&lt;br&gt;numDeTelephone" style="text;strokeColor=none;fillColor=none;align=left;verticalAlign=middle;spacingLeft=4;spacingRight=4;overflow=hidden;points=[[0,0.5],[1,0.5]];portConstraint=eastwest;rotatable=0;whiteSpace=wrap;html=1;" parent="cugVBvZW948sxhPF5yKL-2" vertex="1">
          <mxGeometry y="30" width="190" height="90" as="geometry" />
        </mxCell>
        <mxCell id="cugVBvZW948sxhPF5yKL-6" value="Member" style="swimlane;fontStyle=0;childLayout=stackLayout;horizontal=1;startSize=30;horizontalStack=0;resizeParent=1;resizeParentMax=0;resizeLast=0;collapsible=1;marginBottom=0;whiteSpace=wrap;html=1;" parent="1" vertex="1">
          <mxGeometry x="220" y="210" width="140" height="60" as="geometry" />
        </mxCell>
        <mxCell id="cugVBvZW948sxhPF5yKL-7" value="&lt;u&gt;id_membre&lt;br&gt;&lt;/u&gt;&lt;u&gt;#id_utilisateur&amp;nbsp;&lt;/u&gt;&lt;u&gt;(FK)&lt;/u&gt;" style="text;strokeColor=none;fillColor=none;align=left;verticalAlign=middle;spacingLeft=4;spacingRight=4;overflow=hidden;points=[[0,0.5],[1,0.5]];portConstraint=eastwest;rotatable=0;whiteSpace=wrap;html=1;" parent="cugVBvZW948sxhPF5yKL-6" vertex="1">
          <mxGeometry y="30" width="140" height="30" as="geometry" />
        </mxCell>
        <mxCell id="cugVBvZW948sxhPF5yKL-10" value="Admin" style="swimlane;fontStyle=0;childLayout=stackLayout;horizontal=1;startSize=30;horizontalStack=0;resizeParent=1;resizeParentMax=0;resizeLast=0;collapsible=1;marginBottom=0;whiteSpace=wrap;html=1;" parent="1" vertex="1">
          <mxGeometry x="400" y="230" width="140" height="60" as="geometry" />
        </mxCell>
        <mxCell id="cugVBvZW948sxhPF5yKL-39" value="&lt;u&gt;id_Admin&lt;br&gt;&lt;/u&gt;&lt;u&gt;#id_utilisateur&amp;nbsp;&lt;/u&gt;&lt;u&gt;(FK)&lt;/u&gt;" style="text;strokeColor=none;fillColor=none;align=left;verticalAlign=middle;spacingLeft=4;spacingRight=4;overflow=hidden;points=[[0,0.5],[1,0.5]];portConstraint=eastwest;rotatable=0;whiteSpace=wrap;html=1;" parent="cugVBvZW948sxhPF5yKL-10" vertex="1">
          <mxGeometry y="30" width="140" height="30" as="geometry" />
        </mxCell>
        <mxCell id="YYCjEeao8l8bRHii5wcS-8" style="edgeStyle=orthogonalEdgeStyle;rounded=0;orthogonalLoop=1;jettySize=auto;html=1;entryX=1;entryY=0;entryDx=0;entryDy=0;" parent="1" source="cugVBvZW948sxhPF5yKL-14" target="cugVBvZW948sxhPF5yKL-2" edge="1">
          <mxGeometry relative="1" as="geometry">
            <Array as="points">
              <mxPoint x="710" y="50" />
            </Array>
          </mxGeometry>
        </mxCell>
        <mxCell id="cugVBvZW948sxhPF5yKL-14" value="PersonnelAdministratif" style="swimlane;fontStyle=0;childLayout=stackLayout;horizontal=1;startSize=30;horizontalStack=0;resizeParent=1;resizeParentMax=0;resizeLast=0;collapsible=1;marginBottom=0;whiteSpace=wrap;html=1;" parent="1" vertex="1">
          <mxGeometry x="680" y="110" width="140" height="60" as="geometry" />
        </mxCell>
        <mxCell id="cugVBvZW948sxhPF5yKL-15" value="&lt;u&gt;id_personnelAdministratif&lt;br&gt;#id_utilisateur&amp;nbsp;&lt;/u&gt;&lt;u&gt;(FK)&lt;/u&gt;&lt;u&gt;&lt;br&gt;&lt;/u&gt;" style="text;strokeColor=none;fillColor=none;align=left;verticalAlign=middle;spacingLeft=4;spacingRight=4;overflow=hidden;points=[[0,0.5],[1,0.5]];portConstraint=eastwest;rotatable=0;whiteSpace=wrap;html=1;" parent="cugVBvZW948sxhPF5yKL-14" vertex="1">
          <mxGeometry y="30" width="140" height="30" as="geometry" />
        </mxCell>
        <mxCell id="cugVBvZW948sxhPF5yKL-19" value="Transaction" style="swimlane;fontStyle=0;childLayout=stackLayout;horizontal=1;startSize=30;horizontalStack=0;resizeParent=1;resizeParentMax=0;resizeLast=0;collapsible=1;marginBottom=0;whiteSpace=wrap;html=1;" parent="1" vertex="1">
          <mxGeometry x="20" y="40" width="140" height="140" as="geometry" />
        </mxCell>
        <mxCell id="cugVBvZW948sxhPF5yKL-20" value="&lt;u&gt;id_transaction&lt;/u&gt;&lt;br&gt;&lt;u&gt;#id_Membre (FK)&lt;br&gt;&lt;/u&gt;montant&amp;nbsp;&lt;br&gt;date&lt;br&gt;methode&lt;br&gt;status&lt;br&gt;type" style="text;strokeColor=none;fillColor=none;align=left;verticalAlign=middle;spacingLeft=4;spacingRight=4;overflow=hidden;points=[[0,0.5],[1,0.5]];portConstraint=eastwest;rotatable=0;whiteSpace=wrap;html=1;" parent="cugVBvZW948sxhPF5yKL-19" vertex="1">
          <mxGeometry y="30" width="140" height="110" as="geometry" />
        </mxCell>
        <mxCell id="cugVBvZW948sxhPF5yKL-23" value="Rapport" style="swimlane;fontStyle=0;childLayout=stackLayout;horizontal=1;startSize=30;horizontalStack=0;resizeParent=1;resizeParentMax=0;resizeLast=0;collapsible=1;marginBottom=0;whiteSpace=wrap;html=1;" parent="1" vertex="1">
          <mxGeometry x="710" y="470" width="140" height="110" as="geometry" />
        </mxCell>
        <mxCell id="cugVBvZW948sxhPF5yKL-24" value="&lt;u&gt;id_Rapport&lt;/u&gt;&lt;br&gt;date&lt;br&gt;auteur&lt;br&gt;contenu&lt;br&gt;destinataire" style="text;strokeColor=none;fillColor=none;align=left;verticalAlign=middle;spacingLeft=4;spacingRight=4;overflow=hidden;points=[[0,0.5],[1,0.5]];portConstraint=eastwest;rotatable=0;whiteSpace=wrap;html=1;" parent="cugVBvZW948sxhPF5yKL-23" vertex="1">
          <mxGeometry y="30" width="140" height="80" as="geometry" />
        </mxCell>
        <mxCell id="cugVBvZW948sxhPF5yKL-27" value="Club" style="swimlane;fontStyle=0;childLayout=stackLayout;horizontal=1;startSize=30;horizontalStack=0;resizeParent=1;resizeParentMax=0;resizeLast=0;collapsible=1;marginBottom=0;whiteSpace=wrap;html=1;" parent="1" vertex="1">
          <mxGeometry x="280" y="470" width="140" height="100" as="geometry" />
        </mxCell>
        <mxCell id="cugVBvZW948sxhPF5yKL-28" value="&lt;u&gt;id_Club&lt;/u&gt;&lt;br&gt;nom&lt;br&gt;addresse&lt;br&gt;description" style="text;strokeColor=none;fillColor=none;align=left;verticalAlign=middle;spacingLeft=4;spacingRight=4;overflow=hidden;points=[[0,0.5],[1,0.5]];portConstraint=eastwest;rotatable=0;whiteSpace=wrap;html=1;" parent="cugVBvZW948sxhPF5yKL-27" vertex="1">
          <mxGeometry y="30" width="140" height="70" as="geometry" />
        </mxCell>
        <mxCell id="cugVBvZW948sxhPF5yKL-31" value="SceanceEntrainement" style="swimlane;fontStyle=0;childLayout=stackLayout;horizontal=1;startSize=30;horizontalStack=0;resizeParent=1;resizeParentMax=0;resizeLast=0;collapsible=1;marginBottom=0;whiteSpace=wrap;html=1;" parent="1" vertex="1">
          <mxGeometry x="490" y="470" width="140" height="110" as="geometry" />
        </mxCell>
        <mxCell id="cugVBvZW948sxhPF5yKL-32" value="&lt;u&gt;id_SceanceEntrainement&lt;/u&gt;&lt;br&gt;date&lt;br&gt;lieu&lt;br&gt;exercices&lt;br&gt;entraineur" style="text;strokeColor=none;fillColor=none;align=left;verticalAlign=middle;spacingLeft=4;spacingRight=4;overflow=hidden;points=[[0,0.5],[1,0.5]];portConstraint=eastwest;rotatable=0;whiteSpace=wrap;html=1;" parent="cugVBvZW948sxhPF5yKL-31" vertex="1">
          <mxGeometry y="30" width="140" height="80" as="geometry" />
        </mxCell>
        <mxCell id="YYCjEeao8l8bRHii5wcS-2" style="edgeStyle=orthogonalEdgeStyle;rounded=0;orthogonalLoop=1;jettySize=auto;html=1;entryX=1.009;entryY=0.161;entryDx=0;entryDy=0;entryPerimeter=0;" parent="1" source="cugVBvZW948sxhPF5yKL-35" target="cugVBvZW948sxhPF5yKL-5" edge="1">
          <mxGeometry relative="1" as="geometry">
            <mxPoint x="650" y="30" as="targetPoint" />
          </mxGeometry>
        </mxCell>
        <mxCell id="cugVBvZW948sxhPF5yKL-35" value="Entraineur" style="swimlane;fontStyle=0;childLayout=stackLayout;horizontal=1;startSize=30;horizontalStack=0;resizeParent=1;resizeParentMax=0;resizeLast=0;collapsible=1;marginBottom=0;whiteSpace=wrap;html=1;" parent="1" vertex="1">
          <mxGeometry x="590" y="210" width="140" height="80" as="geometry" />
        </mxCell>
        <mxCell id="cugVBvZW948sxhPF5yKL-36" value="&lt;u&gt;id_Entraineur&lt;br&gt;&lt;/u&gt;&lt;u&gt;#id_utilisateur&amp;nbsp;&lt;/u&gt;&lt;u&gt;(FK)&lt;/u&gt;&lt;u&gt;&lt;br&gt;&lt;/u&gt;specaialite&lt;br&gt;niveauDeQualification" style="text;strokeColor=none;fillColor=none;align=left;verticalAlign=middle;spacingLeft=4;spacingRight=4;overflow=hidden;points=[[0,0.5],[1,0.5]];portConstraint=eastwest;rotatable=0;whiteSpace=wrap;html=1;" parent="cugVBvZW948sxhPF5yKL-35" vertex="1">
          <mxGeometry y="30" width="140" height="50" as="geometry" />
        </mxCell>
        <mxCell id="YYCjEeao8l8bRHii5wcS-3" style="edgeStyle=orthogonalEdgeStyle;rounded=0;orthogonalLoop=1;jettySize=auto;html=1;entryX=0;entryY=0.333;entryDx=0;entryDy=0;entryPerimeter=0;" parent="1" source="cugVBvZW948sxhPF5yKL-6" target="cugVBvZW948sxhPF5yKL-5" edge="1">
          <mxGeometry relative="1" as="geometry" />
        </mxCell>
        <mxCell id="YYCjEeao8l8bRHii5wcS-7" style="edgeStyle=orthogonalEdgeStyle;rounded=0;orthogonalLoop=1;jettySize=auto;html=1;entryX=0.577;entryY=1.006;entryDx=0;entryDy=0;entryPerimeter=0;" parent="1" source="cugVBvZW948sxhPF5yKL-10" target="cugVBvZW948sxhPF5yKL-5" edge="1">
          <mxGeometry relative="1" as="geometry" />
        </mxCell>
        <mxCell id="YYCjEeao8l8bRHii5wcS-9" value="Evenement" style="swimlane;fontStyle=0;childLayout=stackLayout;horizontal=1;startSize=30;horizontalStack=0;resizeParent=1;resizeParentMax=0;resizeLast=0;collapsible=1;marginBottom=0;whiteSpace=wrap;html=1;" parent="1" vertex="1">
          <mxGeometry x="10" y="240" width="140" height="120" as="geometry" />
        </mxCell>
        <mxCell id="YYCjEeao8l8bRHii5wcS-10" value="&lt;u&gt;id_Evenement&lt;/u&gt;&lt;br&gt;nom&lt;br&gt;date&lt;br&gt;lieu&lt;br&gt;description" style="text;strokeColor=none;fillColor=none;align=left;verticalAlign=middle;spacingLeft=4;spacingRight=4;overflow=hidden;points=[[0,0.5],[1,0.5]];portConstraint=eastwest;rotatable=0;whiteSpace=wrap;html=1;" parent="YYCjEeao8l8bRHii5wcS-9" vertex="1">
          <mxGeometry y="30" width="140" height="90" as="geometry" />
        </mxCell>
        <mxCell id="YYCjEeao8l8bRHii5wcS-13" value="ParticipantionEvenements" style="swimlane;fontStyle=0;childLayout=stackLayout;horizontal=1;startSize=30;horizontalStack=0;resizeParent=1;resizeParentMax=0;resizeLast=0;collapsible=1;marginBottom=0;whiteSpace=wrap;html=1;" parent="1" vertex="1">
          <mxGeometry x="200" y="335" width="140" height="90" as="geometry" />
        </mxCell>
        <mxCell id="YYCjEeao8l8bRHii5wcS-14" value="&lt;u&gt;id_Personneladministratif&lt;/u&gt;&lt;br&gt;&lt;u&gt;#id_evenement&amp;nbsp;&lt;/u&gt;&lt;u&gt;(FK)&lt;/u&gt;&lt;br&gt;&lt;u&gt;#id_partiipant&amp;nbsp;&lt;/u&gt;&lt;u&gt;(FK)&lt;/u&gt;" style="text;strokeColor=none;fillColor=none;align=left;verticalAlign=middle;spacingLeft=4;spacingRight=4;overflow=hidden;points=[[0,0.5],[1,0.5]];portConstraint=eastwest;rotatable=0;whiteSpace=wrap;html=1;" parent="YYCjEeao8l8bRHii5wcS-13" vertex="1">
          <mxGeometry y="30" width="140" height="60" as="geometry" />
        </mxCell>
        <mxCell id="YYCjEeao8l8bRHii5wcS-18" value="" style="endArrow=none;html=1;rounded=0;entryX=-0.017;entryY=0.162;entryDx=0;entryDy=0;entryPerimeter=0;exitX=1.012;exitY=0.154;exitDx=0;exitDy=0;exitPerimeter=0;" parent="1" source="YYCjEeao8l8bRHii5wcS-10" target="YYCjEeao8l8bRHii5wcS-13" edge="1">
          <mxGeometry width="50" height="50" relative="1" as="geometry">
            <mxPoint x="140" y="320" as="sourcePoint" />
            <mxPoint x="190" y="270" as="targetPoint" />
          </mxGeometry>
        </mxCell>
        <mxCell id="YYCjEeao8l8bRHii5wcS-19" value="" style="endArrow=none;html=1;rounded=0;" parent="1" source="YYCjEeao8l8bRHii5wcS-13" target="cugVBvZW948sxhPF5yKL-7" edge="1">
          <mxGeometry width="50" height="50" relative="1" as="geometry">
            <mxPoint x="280" y="400" as="sourcePoint" />
            <mxPoint x="330" y="350" as="targetPoint" />
          </mxGeometry>
        </mxCell>
        <mxCell id="YYCjEeao8l8bRHii5wcS-20" value="" style="endArrow=none;html=1;rounded=0;entryX=1;entryY=0;entryDx=0;entryDy=0;exitX=0.329;exitY=-0.017;exitDx=0;exitDy=0;exitPerimeter=0;" parent="1" source="cugVBvZW948sxhPF5yKL-6" target="cugVBvZW948sxhPF5yKL-19" edge="1">
          <mxGeometry width="50" height="50" relative="1" as="geometry">
            <mxPoint x="310" y="230" as="sourcePoint" />
            <mxPoint x="360" y="180" as="targetPoint" />
          </mxGeometry>
        </mxCell>
        <mxCell id="YYCjEeao8l8bRHii5wcS-21" value="effectuer" style="text;html=1;align=center;verticalAlign=middle;resizable=0;points=[];autosize=1;strokeColor=none;fillColor=none;rotation=60;" parent="1" vertex="1">
          <mxGeometry x="200" y="95" width="70" height="30" as="geometry" />
        </mxCell>
        <mxCell id="YYCjEeao8l8bRHii5wcS-22" value="participer" style="text;strokeColor=none;fillColor=none;align=left;verticalAlign=middle;spacingLeft=4;spacingRight=4;overflow=hidden;points=[[0,0.5],[1,0.5]];portConstraint=eastwest;rotatable=0;whiteSpace=wrap;html=1;" parent="1" vertex="1">
          <mxGeometry x="220" y="285" width="80" height="30" as="geometry" />
        </mxCell>
        <mxCell id="YYCjEeao8l8bRHii5wcS-25" value="" style="endArrow=none;html=1;rounded=0;exitX=0.689;exitY=-0.013;exitDx=0;exitDy=0;exitPerimeter=0;" parent="1" source="cugVBvZW948sxhPF5yKL-23" target="cugVBvZW948sxhPF5yKL-14" edge="1">
          <mxGeometry width="50" height="50" relative="1" as="geometry">
            <mxPoint x="540" y="390" as="sourcePoint" />
            <mxPoint x="590" y="340" as="targetPoint" />
          </mxGeometry>
        </mxCell>
        <mxCell id="YYCjEeao8l8bRHii5wcS-26" value="rediger" style="text;html=1;align=center;verticalAlign=middle;resizable=0;points=[];autosize=1;strokeColor=none;fillColor=none;" parent="1" vertex="1">
          <mxGeometry x="770" y="285" width="60" height="30" as="geometry" />
        </mxCell>
        <mxCell id="YYCjEeao8l8bRHii5wcS-27" value="" style="endArrow=none;html=1;rounded=0;exitX=0.343;exitY=-0.024;exitDx=0;exitDy=0;exitPerimeter=0;" parent="1" source="cugVBvZW948sxhPF5yKL-31" target="cugVBvZW948sxhPF5yKL-36" edge="1">
          <mxGeometry width="50" height="50" relative="1" as="geometry">
            <mxPoint x="540" y="390" as="sourcePoint" />
            <mxPoint x="590" y="340" as="targetPoint" />
          </mxGeometry>
        </mxCell>
        <mxCell id="YYCjEeao8l8bRHii5wcS-28" value="Planifier" style="text;html=1;align=center;verticalAlign=middle;resizable=0;points=[];autosize=1;strokeColor=none;fillColor=none;" parent="1" vertex="1">
          <mxGeometry x="590" y="360" width="70" height="30" as="geometry" />
        </mxCell>
      </root>
    </mxGraphModel>
  </diagram>
</mxfile>
